<?xml version="1.0"?>
<svg xmlns="http://www.w3.org/2000/svg" height="512px" viewBox="0 0 512.59516 512" width="512px" class=""><g><path d="m419.222656 159.945312c-4.46875 10.441407-6.230468 21.839844-5.128906 33.140626 4.621094 45.226562-9.90625 90.316406-40.054688 124.339843l-172.855468 172.855469c-8.160156 8.34375-19.3125 13.078125-30.980469 13.144531-11.667969.066407-22.878906-4.535156-31.132813-12.785156-15.503906-16.601563-15.03125-42.511719 1.074219-58.535156-10.636719 10.703125-26.183593 14.90625-40.761719 11.015625-14.578124-3.890625-25.964843-15.277344-29.855468-29.859375-3.890625-14.578125.308594-30.125 11.011718-40.761719-10.636718 10.703125-26.183593 14.902344-40.761718 11.015625-14.578125-3.890625-25.964844-15.277344-29.855469-29.859375-3.890625-14.578125.308594-30.125 11.011719-40.761719l174.289062-174.285156c34.019532-30.152344 79.113282-44.679687 124.335938-40.058594 11.300781 1.105469 22.699218-.660156 33.140625-5.125" fill="#783e22" data-original="#783E22" class="" data-old_color="#783e22" style="fill:#376118"/><path d="m411.394531 152.113281c-4.992187 9.203125-7.851562 19.410157-8.363281 29.867188-2.679688 42.457031-18.117188 83.113281-44.289062 116.648437l-196.265626 196.269532c-13.910156 13.90625-15.789062-6.316407-29.183593-12.289063-9.433594-16.441406-6.632813-37.167969 6.824219-50.515625-5.175782 5.222656-11.660157 8.964844-18.773438 10.835938-12.65625 3.433593-26.1875.777343-36.609375-7.183594-10.417969-7.960938-16.539063-20.320313-16.550781-33.4375.007812-3.742188.496094-7.46875 1.449218-11.089844 1.925782-7.085938 5.695313-13.535156 10.921876-18.691406-13.460938 13.382812-34.195313 16.140625-50.6875 6.742187-2.472657-5.203125-21.757813-6.058593-20.992188-12.371093 1.28125-9.472657.34375-43.007813 8.535156-51.203126l187.730469-187.730468c33.199219-21.230469 71.546875-33.027344 110.933594-34.132813 9.898437-.34375 34.730469 12.542969 44.460937 7.421875zm0 0" fill="#a0522d" data-original="#A0522D" class="" data-old_color="#a0522d" style="fill:#5EA02D"/><path d="m376.234375 76.804688 25.40625-25.410157 59.605469 59.605469-25.40625 25.410156" fill="#624421" data-original="#624421" class="" data-old_color="#624421" style="fill:#376118"/><path d="m499.03125 96.988281-23.554688 23.636719c-3.351562 3.328125-8.761718 3.328125-12.117187 0l-35.582031-35.582031-12.03125-12.035157h-.085938l-5.804687-5.886718-12.03125-12.03125-5.800781-5.804688c-1.359376-1.3125-2.207032-3.066406-2.390626-4.949218-.375-2.628907.511719-5.285157 2.390626-7.167969l23.550781-23.550781c3.183593-3.234376 7.535156-5.054688 12.074219-5.054688 4.539062 0 8.890624 1.820312 12.074218 5.054688l59.308594 59.308593c3.234375 3.167969 5.054688 7.503907 5.054688 12.03125 0 4.527344-1.820313 8.863281-5.054688 12.03125zm0 0" fill="#c81e1e" data-original="#C81E1E" class=""/><path d="m445.527344 150.578125-11.777344 11.773437c-3.351562 3.328126-8.761719 3.328126-12.117188 0l-71.339843-71.335937c-1.292969-1.28125-2.109375-2.96875-2.300781-4.78125-.492188-2.675781.371093-5.421875 2.300781-7.335937l11.777343-11.777344c1.59375-1.597656 3.757813-2.496094 6.015626-2.496094 2.257812 0 4.421874.898438 6.015624 2.496094l71.425782 71.425781c1.597656 1.59375 2.496094 3.757813 2.496094 6.015625s-.898438 4.421875-2.496094 6.015625zm0 0" fill="#c81e1e" data-original="#C81E1E" class=""/><path d="m484.4375 79.835938-23.636719 23.636718c-1.582031 1.617188-3.753906 2.527344-6.015625 2.527344-2.261718 0-4.433594-.910156-6.015625-2.527344l-35.585937-35.582031-12.03125-12.035156h-.085938l-5.800781-5.886719-5.632813-5.632812c-.375-2.628907.511719-5.285157 2.390626-7.167969l23.550781-23.550781c3.183593-3.234376 7.535156-5.054688 12.074219-5.054688 4.539062 0 8.890624 1.820312 12.074218 5.054688l48.726563 48.726562c2.183593 6.113281.617187 12.9375-4.011719 17.492188zm0 0" fill="#f44335" data-original="#F44335" class=""/><path d="m430.847656 133.511719-11.773437 11.773437c-1.59375 1.597656-3.761719 2.496094-6.015625 2.496094-2.257813 0-4.421875-.898438-6.015625-2.496094l-59.050781-59.050781c-.492188-2.675781.371093-5.421875 2.300781-7.335937l11.777343-11.777344c1.59375-1.597656 3.757813-2.496094 6.015626-2.496094 2.257812 0 4.421874.898438 6.015624 2.496094l59.050782 59.050781c.480468 2.675781-.382813 5.417969-2.304688 7.339844zm0 0" fill="#f44335" data-original="#F44335" class=""/><path d="m272.929688 216.316406 101.109374 101.109375-143.054687 143.054688-101.109375-101.109375c-9.996094-10-9.996094-26.207032 0-36.207032l106.851562-106.847656c9.996094-10 26.203126-10 36.203126 0zm0 0" fill="#c81e1e" data-original="#C81E1E" class=""/><path d="m358.742188 298-146.5625 145.695312-82.117188-81.578124c-4.910156-4.871094-7.671875-11.5-7.671875-18.417969 0-6.914063 2.761719-13.546875 7.671875-18.417969l109.484375-108.859375c10.269531-10.164063 26.808594-10.164063 37.078125 0zm0 0" fill="#f44335" data-original="#F44335" class=""/><path d="m439.605469 141.179688c-3.453125 0-6.5625-2.078126-7.882813-5.265626-1.320312-3.191406-.589844-6.859374 1.847656-9.300781l11.851563-11.851562-47.542969-47.539063-11.84375 11.847656c-3.347656 3.246094-8.679687 3.207032-11.976562-.089843s-3.335938-8.628907-.089844-11.976563l17.878906-17.882812c3.386719-3.199219 8.679688-3.199219 12.066406 0l59.609376 59.609375c3.328124 3.332031 3.328124 8.734375 0 12.066406l-17.886719 17.882813c-1.597657 1.605468-3.769531 2.503906-6.03125 2.5zm0 0" data-original="#000000" class="active-path" style="fill:#54596E" data-old_color="#000000"/><path d="m169.257812 511.964844c-.308593 0-.613281 0-.929687-.007813-13.453125-.089843-26.285156-5.691406-35.496094-15.5-8.707031-9.382812-13.566406-21.695312-13.617187-34.492187.015625-3.347656.351562-6.683594 1.007812-9.96875-14.875 2.949218-30.289062-.90625-42.023437-10.515625-11.730469-9.609375-18.550781-23.960938-18.589844-39.125.015625-3.34375.351563-6.679688 1.003906-9.957031-21.902343 4.394531-44.101562-6.082032-54.632812-25.785157s-6.90625-43.980469 8.921875-59.75l174.28125-174.292969c35.777344-32.050781 83.433594-47.488281 131.210937-42.507812 9.875.949219 19.835938-.59375 28.960938-4.492188 4.316406-1.753906 9.246093.273438 11.070312 4.5625 1.824219 4.289063-.128906 9.246094-4.386719 11.140626-11.761718 5.03125-24.597656 7.015624-37.328124 5.773437-42.667969-4.21875-85.183594 9.394531-117.46875 37.609375l-174.277344 174.273438c-13.082032 13.136718-13.058594 34.382812.050781 47.492187 13.105469 13.109375 34.355469 13.128906 47.488281.046875 2.148438-2.199219 5.3125-3.078125 8.285156-2.292969 2.972657.78125 5.292969 3.105469 6.078126 6.078125.78125 2.972656-.09375 6.136719-2.296876 8.285156-12.925781 13.160157-12.828124 34.28125.21875 47.324219 13.046876 13.042969 34.164063 13.136719 47.324219.203125 2.144531-2.214844 5.316407-3.105468 8.300781-2.324218 2.980469.78125 5.3125 3.109374 6.09375 6.09375.78125 2.984374-.109374 6.15625-2.328124 8.296874-12.863282 12.777344-13.238282 33.46875-.84375 46.703126 6.0625 6.394531 14.480468 10.027343 23.292968 10.046874 9.941406.332032 19.5625-3.527343 26.519532-10.640624l172.855468-172.851563c28.183594-32.300781 41.789063-74.800781 37.597656-117.460937-1.234374-12.726563.75-25.5625 5.769532-37.324219 1.894531-4.257813 6.851562-6.210938 11.140625-4.386719 4.289062 1.824219 6.320312 6.753906 4.5625 11.070312-3.898438 9.125-5.441407 19.082032-4.488281 28.957032 5.019531 47.78125-10.425782 95.453125-42.511719 131.210937l-172.859375 172.855469c-10.09375 10.019531-23.734375 15.644531-37.957032 15.652344zm0 0" data-original="#000000" class="active-path" style="fill:#54596E" data-old_color="#000000"/><path d="m469.410156 135.222656c-2.265625 0-4.433594-.898437-6.035156-2.5l-83.449219-83.449218c-3.332031-3.332032-3.332031-8.734376 0-12.066407l29.660157-29.660156c10.128906-9.664063 26.070312-9.664063 36.203124 0l59.304688 59.316406c4.804688 4.800781 7.5 11.3125 7.5 18.101563 0 6.789062-2.695312 13.300781-7.5 18.097656l-29.652344 29.660156c-1.601562 1.597656-3.769531 2.5-6.03125 2.5zm-71.382812-91.984375 71.382812 71.382813 23.621094-23.625c1.597656-1.597656 2.496094-3.765625 2.496094-6.027344s-.898438-4.429688-2.496094-6.03125l-59.3125-59.324219c-3.371094-3.234375-8.691406-3.234375-12.0625 0zm0 0" data-original="#000000" class="active-path" style="fill:#54596E" data-old_color="#000000"/><path d="m427.679688 173.398438c-4.519532.007812-8.855469-1.78125-12.054688-4.976563l-71.390625-71.390625c-6.652344-6.667969-6.652344-17.464844 0-24.132812l11.777344-11.777344c6.753906-6.449219 17.382812-6.449219 24.136719 0l71.378906 71.375c6.660156 6.671875 6.660156 17.472656 0 24.144531l-11.777344 11.773437c-3.199219 3.199219-7.542969 4.992188-12.070312 4.984376zm-.003907-17.058594.007813.007812 11.777344-11.777344-71.382813-71.382812-11.773437 11.777344zm0 0" data-original="#000000" class="active-path" style="fill:#54596E" data-old_color="#000000"/><path d="m230.984375 469.015625c-2.261719-.003906-4.433594-.902344-6.035156-2.503906l-101.105469-101.105469c-6.402344-6.402344-10-15.085938-10-24.136719 0-9.054687 3.597656-17.738281 10-24.140625l106.847656-106.847656c13.34375-13.300781 34.929688-13.300781 48.273438 0l101.109375 101.109375c3.332031 3.332031 3.332031 8.734375 0 12.066406l-143.054688 143.054688c-1.601562 1.601562-3.773437 2.5-6.035156 2.503906zm23.839844-251.648437c-4.523438-.011719-8.867188 1.78125-12.066407 4.980468l-106.847656 106.847656c-6.65625 6.671876-6.65625 17.472657 0 24.144532l95.074219 95.074218 130.984375-130.992187-95.074219-95.074219c-3.199219-3.199218-7.542969-4.992187-12.070312-4.984375zm0 0" data-original="#000000" class="active-path" style="fill:#54596E" data-old_color="#000000"/><path d="m111.773438 278.273438c-3.453126 0-6.5625-2.082032-7.886719-5.269532-1.320313-3.1875-.589844-6.859375 1.851562-9.296875l107.292969-107.292969c3.34375-3.246093 8.675781-3.207031 11.972656.089844s3.339844 8.628906.09375 11.976563l-107.292968 107.292969c-1.597657 1.601562-3.769532 2.5-6.03125 2.5zm0 0" data-original="#000000" class="active-path" style="fill:#54596E" data-old_color="#000000"/><path d="m76.007812 314.039062c-3.449218 0-6.5625-2.078124-7.882812-5.269531-1.320312-3.1875-.589844-6.855469 1.851562-9.296875l11.917969-11.925781c2.144531-2.210937 5.316407-3.09375 8.292969-2.3125 2.980469.78125 5.304688 3.109375 6.085938 6.085937.785156 2.980469-.101563 6.148438-2.308594 8.292969l-11.921875 11.925781c-1.597657 1.601563-3.769531 2.503907-6.035157 2.5zm0 0" data-original="#000000" class="active-path" style="fill:#54596E" data-old_color="#000000"/><path d="m403.84375 69.65625c-3.453125 0-6.5625-2.078125-7.882812-5.269531-1.320313-3.1875-.59375-6.855469 1.847656-9.296875l17.882812-17.882813c3.347656-3.246093 8.679688-3.207031 11.976563.089844s3.335937 8.628906.089843 11.976563l-17.882812 17.882812c-1.597656 1.601562-3.769531 2.5-6.03125 2.5zm0 0" data-original="#000000" class="active-path" style="fill:#54596E" data-old_color="#000000"/><path d="m421.726562 87.539062c-3.453124 0-6.5625-2.078124-7.882812-5.269531-1.320312-3.1875-.589844-6.855469 1.847656-9.296875l17.878906-17.882812c3.347657-3.246094 8.679688-3.207032 11.976563.089844 3.296875 3.296874 3.335937 8.628906.089844 11.976562l-17.878907 17.886719c-1.597656 1.601562-3.769531 2.5-6.03125 2.496093zm0 0" data-original="#000000" class="active-path" style="fill:#54596E" data-old_color="#000000"/></g> </svg>
